<svg xmlns="http://www.w3.org/2000/svg" viewBox="0 0 512 512">
  <!-- Firelink bonfire — flat, app palette (ash + ember + soul) -->
  <rect width="512" height="512" rx="112" fill="#14100d"/>
  <circle cx="256" cy="300" r="186" fill="#1a1410"/>

  <!-- coiled sword: hilt above the flames -->
  <circle cx="256" cy="120" r="15" fill="#b09a82"/>
  <rect x="249" y="128" width="14" height="50" rx="4" fill="#8a7560"/>
  <path d="M204 182 q52 -16 104 0 q-10 11 -22 12 h-60 q-12 -1 -22 -12 z" fill="#b09a82"/>
  <polygon points="242,190 270,190 262,330 256,372 250,330" fill="#6f5d4b"/>

  <!-- ash / bone mound -->
  <ellipse cx="256" cy="404" rx="132" ry="30" fill="#2e251d"/>
  <ellipse cx="256" cy="396" rx="120" ry="22" fill="#3d3127"/>
  <ellipse cx="206" cy="402" rx="13" ry="11" fill="#7d6a55"/>
  <ellipse cx="306" cy="402" rx="13" ry="11" fill="#7d6a55"/>

  <!-- flames -->
  <path d="M256 228 C 244 270 286 286 286 332 C 286 368 320 374 322 398
           C 300 388 212 388 190 398 C 192 374 226 368 226 332
           C 226 286 268 270 256 228 Z" fill="#b3501f"/>
  <path d="M256 256 C 248 288 276 300 276 334 C 276 362 300 368 302 396
           C 286 388 226 388 210 396 C 212 368 236 362 236 334
           C 236 300 264 288 256 256 Z" fill="#d4682a"/>
  <path d="M256 288 C 250 310 268 318 268 344 C 268 366 284 370 286 394
           C 274 388 238 388 226 394 C 228 370 244 366 244 344
           C 244 318 262 310 256 288 Z" fill="#f4a85c"/>
</svg>
